<svg xmlns="http://www.w3.org/2000/svg" xmlns:xlink="http://www.w3.org/1999/xlink" width="500" zoomAndPan="magnify" viewBox="0 0 375 374.999991" height="500" preserveAspectRatio="xMidYMid meet" version="1.0"><defs><clipPath id="127697ca38"><path d="M 61 207 L 199 207 L 199 366.113281 L 61 366.113281 Z M 61 207 " clip-rule="nonzero"/></clipPath><clipPath id="08a616b590"><path d="M 175 207 L 312 207 L 312 366.113281 L 175 366.113281 Z M 175 207 " clip-rule="nonzero"/></clipPath><clipPath id="880ed24533"><path d="M 174 9.113281 L 311 9.113281 L 311 168 L 174 168 Z M 174 9.113281 " clip-rule="nonzero"/></clipPath><clipPath id="fa2464bbd3"><path d="M 60 9.113281 L 197 9.113281 L 197 168 L 60 168 Z M 60 9.113281 " clip-rule="nonzero"/></clipPath></defs><g clip-path="url(#127697ca38)"><path fill="#000000" d="M 61.742188 327.34375 L 62.832031 247.9375 L 131 207.292969 L 198.078125 246.058594 L 196.984375 325.46875 L 128.816406 366.113281 Z M 61.742188 327.34375 " fill-opacity="1" fill-rule="nonzero"/></g><path fill="#000000" d="M 5.320312 227.394531 L 6.414062 147.984375 L 74.582031 107.34375 L 141.65625 146.109375 L 140.5625 225.519531 L 72.394531 266.164062 Z M 5.320312 227.394531 " fill-opacity="1" fill-rule="nonzero"/><path fill="#000000" d="M 120.503906 227.394531 L 121.597656 147.984375 L 189.765625 107.34375 L 256.839844 146.109375 L 255.746094 225.519531 L 187.578125 266.164062 Z M 120.503906 227.394531 " fill-opacity="1" fill-rule="nonzero"/><g clip-path="url(#08a616b590)"><path fill="#000000" d="M 175.613281 327.34375 L 176.707031 247.9375 L 244.90625 207.292969 L 311.980469 246.058594 L 310.886719 325.46875 L 242.71875 366.113281 Z M 175.613281 327.34375 " fill-opacity="1" fill-rule="nonzero"/></g><path fill="#000000" d="M 233.285156 227.394531 L 234.378906 147.984375 L 302.546875 107.34375 L 369.652344 146.109375 L 368.558594 225.519531 L 300.359375 266.164062 Z M 233.285156 227.394531 " fill-opacity="1" fill-rule="nonzero"/><g clip-path="url(#880ed24533)"><path fill="#000000" d="M 174.394531 129.164062 L 175.488281 49.753906 L 243.65625 9.113281 L 310.730469 47.878906 L 309.640625 127.289062 L 241.46875 167.933594 Z M 174.394531 129.164062 " fill-opacity="1" fill-rule="nonzero"/></g><g clip-path="url(#fa2464bbd3)"><path fill="#000000" d="M 60.179688 129.164062 L 61.273438 49.753906 L 129.441406 9.113281 L 196.515625 47.878906 L 195.421875 127.289062 L 127.253906 167.933594 Z M 60.179688 129.164062 " fill-opacity="1" fill-rule="nonzero"/></g><path fill="#ffffff" d="M 83.609375 116.785156 L 84.359375 63.105469 L 130.441406 35.625 L 175.800781 61.824219 L 175.050781 115.503906 L 128.972656 142.984375 Z M 83.609375 116.785156 " fill-opacity="1" fill-rule="nonzero"/><path fill="#ffffff" d="M 141.4375 216.203125 L 142.1875 162.523438 L 188.265625 135.042969 L 233.628906 161.242188 L 232.878906 214.921875 L 186.796875 242.402344 Z M 141.4375 216.203125 " fill-opacity="1" fill-rule="nonzero"/><path fill="#ffffff" d="M 26.25 216.203125 L 27 162.523438 L 73.082031 135.042969 L 118.441406 161.242188 L 117.691406 214.921875 L 71.613281 242.402344 Z M 26.25 216.203125 " fill-opacity="1" fill-rule="nonzero"/><path fill="#e6e7e8" d="M 157.839844 207.636719 L 220.445312 170.121094 L 221.101562 206.855469 L 189.453125 226.019531 Z M 157.839844 207.636719 " fill-opacity="1" fill-rule="nonzero"/><path fill="#e6e7e8" d="M 98.074219 110.25 L 160.679688 72.734375 L 161.335938 109.46875 L 129.722656 128.632812 Z M 98.074219 110.25 " fill-opacity="1" fill-rule="nonzero"/><path fill="#e6e7e8" d="M 40.714844 207.636719 L 103.320312 170.121094 L 103.976562 206.855469 L 72.363281 226.019531 Z M 40.714844 207.636719 " fill-opacity="1" fill-rule="nonzero"/><path fill="#ffffff" d="M 83.609375 314.558594 L 84.359375 260.878906 L 130.441406 233.398438 L 175.800781 259.597656 L 175.050781 313.277344 L 128.972656 340.757812 Z M 83.609375 314.558594 " fill-opacity="1" fill-rule="nonzero"/><path fill="#ffffff" d="M 196.484375 314.558594 L 197.203125 260.878906 L 243.3125 233.398438 L 288.644531 259.597656 L 287.925781 313.277344 L 241.8125 340.757812 Z M 196.484375 314.558594 " fill-opacity="1" fill-rule="nonzero"/><path fill="#ffffff" d="M 253.21875 216.203125 L 253.96875 162.523438 L 300.046875 135.042969 L 345.378906 161.242188 L 344.660156 214.921875 L 298.546875 242.402344 Z M 253.21875 216.203125 " fill-opacity="1" fill-rule="nonzero"/><path fill="#e6e7e8" d="M 99.917969 305.023438 L 162.554688 267.507812 L 163.210938 304.242188 L 131.5625 323.40625 Z M 99.917969 305.023438 " fill-opacity="1" fill-rule="nonzero"/><path fill="#e6e7e8" d="M 210.917969 307.835938 L 273.554688 270.320312 L 274.210938 307.023438 L 242.5625 326.1875 Z M 210.917969 307.835938 " fill-opacity="1" fill-rule="nonzero"/><path fill="#e6e7e8" d="M 269.835938 207.636719 L 332.445312 170.121094 L 333.101562 206.855469 L 301.453125 226.019531 Z M 269.835938 207.636719 " fill-opacity="1" fill-rule="nonzero"/><path fill="#fbb716" d="M 197.703125 116.785156 L 198.453125 63.105469 L 244.53125 35.625 L 289.894531 61.824219 L 289.144531 115.503906 L 243.0625 142.984375 Z M 197.703125 116.785156 " fill-opacity="1" fill-rule="nonzero"/><path fill="#cf8a2a" d="M 212.167969 110.25 L 274.773438 72.734375 L 275.429688 109.46875 L 243.8125 128.632812 Z M 212.167969 110.25 " fill-opacity="1" fill-rule="nonzero"/></svg>