<svg xmlns="http://www.w3.org/2000/svg" xmlns:xlink="http://www.w3.org/1999/xlink" width="500" zoomAndPan="magnify" viewBox="0 0 375 374.999991" height="500" preserveAspectRatio="xMidYMid meet" version="1.0"><defs><g/><clipPath id="831035c33b"><path d="M 144 144 L 191 144 L 191 199.214844 L 144 199.214844 Z M 144 144 " clip-rule="nonzero"/></clipPath><clipPath id="6ab275e718"><path d="M 124.359375 110 L 172 110 L 172 165 L 124.359375 165 Z M 124.359375 110 " clip-rule="nonzero"/></clipPath><clipPath id="a7a0add1fd"><path d="M 183 144 L 231 144 L 231 199.214844 L 183 199.214844 Z M 183 144 " clip-rule="nonzero"/></clipPath><clipPath id="3c0e8702d3"><path d="M 182 76.214844 L 230 76.214844 L 230 131 L 182 131 Z M 182 76.214844 " clip-rule="nonzero"/></clipPath><clipPath id="12a0fa72e0"><path d="M 143 76.214844 L 191 76.214844 L 191 131 L 143 131 Z M 143 76.214844 " clip-rule="nonzero"/></clipPath><clipPath id="7e34809548"><rect x="0" width="185" y="0" height="75"/></clipPath></defs><rect x="-37.5" width="450" fill="#ffffff" y="-37.499999" height="449.999989" fill-opacity="1"/><rect x="-37.5" width="450" fill="#000000" y="-37.499999" height="449.999989" fill-opacity="1"/><g clip-path="url(#831035c33b)"><path fill="#000000" d="M 144.15625 185.859375 L 144.535156 158.5 L 167.953125 144.496094 L 190.996094 157.855469 L 190.621094 185.214844 L 167.203125 199.214844 Z M 144.15625 185.859375 " fill-opacity="1" fill-rule="nonzero"/></g><g clip-path="url(#6ab275e718)"><path fill="#000000" d="M 124.773438 151.421875 L 125.148438 124.0625 L 148.570312 110.0625 L 171.613281 123.417969 L 171.238281 150.777344 L 147.816406 164.78125 Z M 124.773438 151.421875 " fill-opacity="1" fill-rule="nonzero"/></g><path fill="#000000" d="M 164.347656 151.421875 L 164.722656 124.0625 L 188.144531 110.0625 L 211.1875 123.417969 L 210.8125 150.777344 L 187.390625 164.78125 Z M 164.347656 151.421875 " fill-opacity="1" fill-rule="nonzero"/><g clip-path="url(#a7a0add1fd)"><path fill="#000000" d="M 183.28125 185.859375 L 183.65625 158.5 L 207.085938 144.496094 L 230.132812 157.855469 L 229.753906 185.214844 L 206.335938 199.214844 Z M 183.28125 185.859375 " fill-opacity="1" fill-rule="nonzero"/></g><path fill="#000000" d="M 203.09375 151.421875 L 203.46875 124.0625 L 226.890625 110.0625 L 249.945312 123.417969 L 249.570312 150.777344 L 226.136719 164.78125 Z M 203.09375 151.421875 " fill-opacity="1" fill-rule="nonzero"/><g clip-path="url(#3c0e8702d3)"><path fill="#000000" d="M 182.863281 117.578125 L 183.238281 90.21875 L 206.65625 76.214844 L 229.703125 89.574219 L 229.324219 116.933594 L 205.90625 130.9375 Z M 182.863281 117.578125 " fill-opacity="1" fill-rule="nonzero"/></g><g clip-path="url(#12a0fa72e0)"><path fill="#000000" d="M 143.621094 117.578125 L 143.996094 90.21875 L 167.417969 76.214844 L 190.460938 89.574219 L 190.085938 116.933594 L 166.664062 130.9375 Z M 143.621094 117.578125 " fill-opacity="1" fill-rule="nonzero"/></g><path fill="#ffffff" d="M 151.671875 113.3125 L 151.929688 94.820312 L 167.761719 85.351562 L 183.34375 94.378906 L 183.085938 112.871094 L 167.257812 122.339844 Z M 151.671875 113.3125 " fill-opacity="1" fill-rule="nonzero"/><path fill="#ffffff" d="M 171.539062 147.566406 L 171.796875 129.074219 L 187.628906 119.605469 L 203.210938 128.628906 L 202.953125 147.125 L 187.125 156.59375 Z M 171.539062 147.566406 " fill-opacity="1" fill-rule="nonzero"/><path fill="#ffffff" d="M 131.964844 147.566406 L 132.222656 129.074219 L 148.054688 119.605469 L 163.640625 128.628906 L 163.382812 147.125 L 147.550781 156.59375 Z M 131.964844 147.566406 " fill-opacity="1" fill-rule="nonzero"/><path fill="#e6e7e8" d="M 177.171875 144.617188 L 198.683594 131.691406 L 198.90625 144.347656 L 188.035156 150.949219 Z M 177.171875 144.617188 " fill-opacity="1" fill-rule="nonzero"/><path fill="#e6e7e8" d="M 156.640625 111.0625 L 178.148438 98.136719 L 178.375 110.792969 L 167.511719 117.394531 Z M 156.640625 111.0625 " fill-opacity="1" fill-rule="nonzero"/><path fill="#e6e7e8" d="M 136.933594 144.617188 L 158.445312 131.691406 L 158.667969 144.347656 L 147.808594 150.949219 Z M 136.933594 144.617188 " fill-opacity="1" fill-rule="nonzero"/><path fill="#ffffff" d="M 151.671875 181.453125 L 151.929688 162.960938 L 167.761719 153.492188 L 183.34375 162.519531 L 183.085938 181.011719 L 167.257812 190.480469 Z M 151.671875 181.453125 " fill-opacity="1" fill-rule="nonzero"/><path fill="#ffffff" d="M 190.449219 181.453125 L 190.695312 162.960938 L 206.539062 153.492188 L 222.113281 162.519531 L 221.867188 181.011719 L 206.023438 190.480469 Z M 190.449219 181.453125 " fill-opacity="1" fill-rule="nonzero"/><path fill="#ffffff" d="M 209.941406 147.566406 L 210.199219 129.074219 L 226.03125 119.605469 L 241.605469 128.628906 L 241.359375 147.125 L 225.515625 156.59375 Z M 209.941406 147.566406 " fill-opacity="1" fill-rule="nonzero"/><path fill="#e6e7e8" d="M 157.273438 178.167969 L 178.792969 165.242188 L 179.019531 177.898438 L 168.148438 184.503906 Z M 157.273438 178.167969 " fill-opacity="1" fill-rule="nonzero"/><path fill="#e6e7e8" d="M 195.410156 179.136719 L 216.929688 166.210938 L 217.15625 178.859375 L 206.28125 185.460938 Z M 195.410156 179.136719 " fill-opacity="1" fill-rule="nonzero"/><path fill="#e6e7e8" d="M 215.652344 144.617188 L 237.160156 131.691406 L 237.386719 144.347656 L 226.515625 150.949219 Z M 215.652344 144.617188 " fill-opacity="1" fill-rule="nonzero"/><path fill="#fbb716" d="M 190.867188 113.3125 L 191.125 94.820312 L 206.957031 85.351562 L 222.542969 94.378906 L 222.285156 112.871094 L 206.453125 122.339844 Z M 190.867188 113.3125 " fill-opacity="1" fill-rule="nonzero"/><path fill="#cf8a2a" d="M 195.839844 111.0625 L 217.347656 98.136719 L 217.574219 110.792969 L 206.710938 117.394531 Z M 195.839844 111.0625 " fill-opacity="1" fill-rule="nonzero"/><g transform="matrix(1, 0, 0, 1, 95, 210)"><g clip-path="url(#7e34809548)"><g fill="#ffffff" fill-opacity="1"><g transform="translate(1.327863, 55.805777)"><g><path d="M 0.46875 -49.8125 C 1.644531 -49.8125 2.984375 -49.941406 4.484375 -50.203125 C 5.984375 -50.460938 7.488281 -50.785156 9 -51.171875 C 10.519531 -51.566406 11.9375 -51.976562 13.25 -52.40625 C 14.5625 -52.84375 15.640625 -53.21875 16.484375 -53.53125 C 16.722656 -53.613281 16.90625 -53.703125 17.03125 -53.796875 L 17.5 -53.796875 L 17.5 -30.78125 C 18.09375 -32.019531 18.941406 -33.171875 20.046875 -34.234375 C 21.160156 -35.304688 22.46875 -36.164062 23.96875 -36.8125 C 25.476562 -37.457031 27.113281 -37.78125 28.875 -37.78125 C 31.257812 -37.78125 33.160156 -37.367188 34.578125 -36.546875 C 36.003906 -35.734375 37.070312 -34.691406 37.78125 -33.421875 C 38.5 -32.148438 38.976562 -30.800781 39.21875 -29.375 C 39.46875 -27.957031 39.59375 -26.644531 39.59375 -25.4375 L 39.59375 -6.5 C 39.59375 -4.800781 39.820312 -3.4375 40.28125 -2.40625 C 40.75 -1.382812 41.523438 -0.738281 42.609375 -0.46875 L 42.609375 0 L 22.65625 0 L 22.65625 -0.46875 C 23.738281 -0.738281 24.507812 -1.382812 24.96875 -2.40625 C 25.4375 -3.4375 25.671875 -4.800781 25.671875 -6.5 L 25.671875 -27.203125 C 25.671875 -28.066406 25.582031 -28.945312 25.40625 -29.84375 C 25.238281 -30.75 24.914062 -31.507812 24.4375 -32.125 C 23.957031 -32.738281 23.222656 -33.046875 22.234375 -33.046875 C 21.273438 -33.046875 20.4375 -32.757812 19.71875 -32.1875 C 19.007812 -31.613281 18.460938 -30.863281 18.078125 -29.9375 C 17.691406 -29.007812 17.5 -28.019531 17.5 -26.96875 L 17.5 -6.5 C 17.5 -4.800781 17.726562 -3.4375 18.1875 -2.40625 C 18.65625 -1.382812 19.429688 -0.738281 20.515625 -0.46875 L 20.515625 0 L 0.5625 0 L 0.5625 -0.46875 C 1.644531 -0.738281 2.414062 -1.382812 2.875 -2.40625 C 3.34375 -3.4375 3.578125 -4.800781 3.578125 -6.5 L 3.578125 -43.21875 C 3.578125 -44.675781 3.394531 -45.851562 3.03125 -46.75 C 2.675781 -47.644531 2.257812 -48.300781 1.78125 -48.71875 C 1.300781 -49.132812 0.863281 -49.34375 0.46875 -49.34375 Z M 0.46875 -49.8125 "/></g></g></g><g fill="#ffffff" fill-opacity="1"><g transform="translate(44.405827, 55.805777)"><g><path d="M 1.859375 -8.78125 C 1.859375 -10.820312 2.207031 -12.566406 2.90625 -14.015625 C 3.601562 -15.472656 4.515625 -16.695312 5.640625 -17.6875 C 6.765625 -18.675781 8.007812 -19.492188 9.375 -20.140625 C 10.738281 -20.796875 12.109375 -21.347656 13.484375 -21.796875 C 14.859375 -22.242188 16.109375 -22.644531 17.234375 -23 C 18.367188 -23.351562 19.285156 -23.738281 19.984375 -24.15625 C 20.679688 -24.582031 21.03125 -25.085938 21.03125 -25.671875 C 21.03125 -26.285156 20.757812 -26.691406 20.21875 -26.890625 C 19.675781 -27.097656 19.171875 -27.203125 18.703125 -27.203125 C 17.835938 -27.203125 17.078125 -26.992188 16.421875 -26.578125 C 15.773438 -26.160156 15.144531 -25.6875 14.53125 -25.15625 C 13.914062 -24.632812 13.21875 -24.164062 12.4375 -23.75 C 11.664062 -23.332031 10.738281 -23.125 9.65625 -23.125 C 7.988281 -23.125 6.648438 -23.640625 5.640625 -24.671875 C 4.628906 -25.710938 4.125 -26.941406 4.125 -28.359375 C 4.125 -29.441406 4.398438 -30.53125 4.953125 -31.625 C 5.515625 -32.726562 6.375 -33.742188 7.53125 -34.671875 C 8.695312 -35.597656 10.191406 -36.347656 12.015625 -36.921875 C 13.847656 -37.492188 16.03125 -37.78125 18.5625 -37.78125 C 21.476562 -37.78125 23.957031 -37.410156 26 -36.671875 C 28.039062 -35.929688 29.71875 -34.957031 31.03125 -33.75 C 32.34375 -32.539062 33.367188 -31.222656 34.109375 -29.796875 C 34.859375 -28.378906 35.378906 -26.988281 35.671875 -25.625 C 35.960938 -24.257812 36.109375 -23.066406 36.109375 -22.046875 L 36.109375 -9 C 36.109375 -7.269531 36.363281 -5.800781 36.875 -4.59375 C 37.382812 -3.382812 38.304688 -2.78125 39.640625 -2.78125 L 39.640625 -2.328125 C 38.398438 -1.609375 36.972656 -0.894531 35.359375 -0.1875 C 33.753906 0.519531 31.851562 0.875 29.65625 0.875 C 27.988281 0.875 26.597656 0.457031 25.484375 -0.375 C 24.367188 -1.207031 23.515625 -2.265625 22.921875 -3.546875 C 22.335938 -4.835938 22 -6.144531 21.90625 -7.46875 C 20.976562 -4.5625 19.617188 -2.441406 17.828125 -1.109375 C 16.035156 0.210938 13.898438 0.875 11.421875 0.875 C 9.742188 0.875 8.175781 0.484375 6.71875 -0.296875 C 5.269531 -1.085938 4.097656 -2.203125 3.203125 -3.640625 C 2.304688 -5.078125 1.859375 -6.789062 1.859375 -8.78125 Z M 15.734375 -12.625 C 15.734375 -11.789062 15.863281 -10.960938 16.125 -10.140625 C 16.394531 -9.316406 16.800781 -8.640625 17.34375 -8.109375 C 17.882812 -7.585938 18.539062 -7.328125 19.3125 -7.328125 C 19.925781 -7.328125 20.503906 -7.53125 21.046875 -7.9375 C 21.585938 -8.34375 21.859375 -8.664062 21.859375 -8.90625 L 21.859375 -27.8125 C 21.859375 -28.457031 21.859375 -29.296875 21.859375 -30.328125 C 21.859375 -31.367188 21.773438 -32.398438 21.609375 -33.421875 C 21.441406 -34.441406 21.125 -35.304688 20.65625 -36.015625 C 20.195312 -36.734375 19.5 -37.09375 18.5625 -37.09375 C 17.914062 -37.09375 17.421875 -36.8125 17.078125 -36.25 C 16.742188 -35.695312 16.515625 -35.085938 16.390625 -34.421875 C 16.265625 -33.753906 16.203125 -33.25 16.203125 -32.90625 C 16.203125 -31.550781 16.535156 -30.539062 17.203125 -29.875 C 17.867188 -29.207031 18.570312 -28.703125 19.3125 -28.359375 C 19.957031 -28.054688 20.539062 -27.738281 21.0625 -27.40625 C 21.59375 -27.082031 21.859375 -26.550781 21.859375 -25.8125 C 21.859375 -25.070312 21.648438 -24.488281 21.234375 -24.0625 C 20.816406 -23.644531 20.304688 -23.21875 19.703125 -22.78125 C 19.097656 -22.351562 18.492188 -21.769531 17.890625 -21.03125 C 17.285156 -20.289062 16.773438 -19.257812 16.359375 -17.9375 C 15.941406 -16.625 15.734375 -14.851562 15.734375 -12.625 Z M 15.734375 -12.625 "/></g></g></g><g fill="#ffffff" fill-opacity="1"><g transform="translate(84.512896, 55.805777)"><g><path d="M 0.46875 -49.8125 C 1.738281 -49.8125 3.171875 -49.945312 4.765625 -50.21875 C 6.359375 -50.5 7.957031 -50.847656 9.5625 -51.265625 C 11.175781 -51.691406 12.644531 -52.128906 13.96875 -52.578125 C 15.300781 -53.023438 16.320312 -53.429688 17.03125 -53.796875 L 17.5 -53.796875 L 17.5 -6.5 C 17.5 -4.800781 17.726562 -3.4375 18.1875 -2.40625 C 18.65625 -1.382812 19.429688 -0.738281 20.515625 -0.46875 L 20.515625 0 L 0.5625 0 L 0.5625 -0.46875 C 1.644531 -0.738281 2.414062 -1.382812 2.875 -2.40625 C 3.34375 -3.4375 3.578125 -4.800781 3.578125 -6.5 L 3.578125 -43.21875 C 3.578125 -44.675781 3.394531 -45.851562 3.03125 -46.75 C 2.675781 -47.644531 2.257812 -48.300781 1.78125 -48.71875 C 1.300781 -49.132812 0.863281 -49.34375 0.46875 -49.34375 Z M 0.46875 -49.8125 "/></g></g></g><g fill="#ffffff" fill-opacity="1"><g transform="translate(105.494836, 55.805777)"><g><path d="M 20.46875 0.875 C 17.90625 0.875 15.5 0.441406 13.25 -0.421875 C 11.007812 -1.285156 9.03125 -2.546875 7.3125 -4.203125 C 5.59375 -5.859375 4.253906 -7.882812 3.296875 -10.28125 C 2.335938 -12.675781 1.859375 -15.390625 1.859375 -18.421875 C 1.859375 -21.460938 2.34375 -24.179688 3.3125 -26.578125 C 4.289062 -28.972656 5.640625 -31.003906 7.359375 -32.671875 C 9.078125 -34.347656 11.054688 -35.617188 13.296875 -36.484375 C 15.546875 -37.347656 17.953125 -37.78125 20.515625 -37.78125 C 23.085938 -37.78125 25.492188 -37.347656 27.734375 -36.484375 C 29.984375 -35.617188 31.960938 -34.347656 33.671875 -32.671875 C 35.390625 -31.003906 36.726562 -28.972656 37.6875 -26.578125 C 38.65625 -24.179688 39.140625 -21.460938 39.140625 -18.421875 C 39.140625 -15.390625 38.648438 -12.675781 37.671875 -10.28125 C 36.691406 -7.882812 35.34375 -5.859375 33.625 -4.203125 C 31.914062 -2.546875 29.9375 -1.285156 27.6875 -0.421875 C 25.445312 0.441406 23.039062 0.875 20.46875 0.875 Z M 16.9375 -18.46875 C 16.9375 -15.9375 16.941406 -13.554688 16.953125 -11.328125 C 16.972656 -9.097656 17.066406 -7.140625 17.234375 -5.453125 C 17.410156 -3.765625 17.753906 -2.445312 18.265625 -1.5 C 18.773438 -0.5625 19.507812 -0.09375 20.46875 -0.09375 C 21.457031 -0.09375 22.195312 -0.5625 22.6875 -1.5 C 23.1875 -2.445312 23.519531 -3.765625 23.6875 -5.453125 C 23.863281 -7.140625 23.957031 -9.097656 23.96875 -11.328125 C 23.988281 -13.554688 24 -15.9375 24 -18.46875 C 24 -21.007812 23.988281 -23.382812 23.96875 -25.59375 C 23.957031 -27.8125 23.863281 -29.753906 23.6875 -31.421875 C 23.519531 -33.097656 23.1875 -34.40625 22.6875 -35.34375 C 22.195312 -36.289062 21.457031 -36.765625 20.46875 -36.765625 C 19.507812 -36.765625 18.773438 -36.289062 18.265625 -35.34375 C 17.753906 -34.40625 17.410156 -33.097656 17.234375 -31.421875 C 17.066406 -29.753906 16.972656 -27.8125 16.953125 -25.59375 C 16.941406 -23.382812 16.9375 -21.007812 16.9375 -18.46875 Z M 16.9375 -18.46875 "/></g></g></g><g fill="#ffffff" fill-opacity="1"><g transform="translate(146.483886, 55.805777)"><g><path d="M 21.21875 0.875 C 18.519531 0.875 16.003906 0.375 13.671875 -0.625 C 11.335938 -1.632812 9.285156 -3.019531 7.515625 -4.78125 C 5.753906 -6.539062 4.367188 -8.585938 3.359375 -10.921875 C 2.359375 -13.265625 1.859375 -15.765625 1.859375 -18.421875 C 1.859375 -21.085938 2.304688 -23.585938 3.203125 -25.921875 C 4.097656 -28.265625 5.363281 -30.316406 7 -32.078125 C 8.644531 -33.835938 10.585938 -35.21875 12.828125 -36.21875 C 15.078125 -37.226562 17.546875 -37.734375 20.234375 -37.734375 C 23.765625 -37.734375 26.75 -37.191406 29.1875 -36.109375 C 31.632812 -35.023438 33.5 -33.578125 34.78125 -31.765625 C 36.070312 -29.960938 36.71875 -27.960938 36.71875 -25.765625 C 36.71875 -22.703125 35.460938 -20.378906 32.953125 -18.796875 C 30.453125 -17.222656 26.398438 -16.4375 20.796875 -16.4375 L 16.625 -16.4375 C 18.070312 -14.144531 19.960938 -12.394531 22.296875 -11.1875 C 24.640625 -9.976562 27.28125 -9.375 30.21875 -9.375 C 31.269531 -9.375 32.273438 -9.472656 33.234375 -9.671875 C 34.191406 -9.878906 35.148438 -10.179688 36.109375 -10.578125 C 36.109375 -8.972656 35.695312 -7.472656 34.875 -6.078125 C 34.0625 -4.691406 32.953125 -3.46875 31.546875 -2.40625 C 30.140625 -1.351562 28.546875 -0.546875 26.765625 0.015625 C 24.984375 0.585938 23.132812 0.875 21.21875 0.875 Z M 16.109375 -17.3125 L 16.390625 -17.3125 C 17.929688 -17.3125 19.226562 -17.617188 20.28125 -18.234375 C 21.332031 -18.859375 22.179688 -19.6875 22.828125 -20.71875 C 23.484375 -21.757812 23.953125 -22.898438 24.234375 -24.140625 C 24.515625 -25.378906 24.65625 -26.601562 24.65625 -27.8125 C 24.65625 -28.800781 24.550781 -29.8125 24.34375 -30.84375 C 24.144531 -31.882812 23.828125 -32.84375 23.390625 -33.71875 C 22.960938 -34.601562 22.414062 -35.320312 21.75 -35.875 C 21.082031 -36.4375 20.300781 -36.71875 19.40625 -36.71875 C 18.351562 -36.71875 17.460938 -36.414062 16.734375 -35.8125 C 16.003906 -35.207031 15.421875 -34.425781 14.984375 -33.46875 C 14.554688 -32.507812 14.25 -31.507812 14.0625 -30.46875 C 13.875 -29.4375 13.78125 -28.472656 13.78125 -27.578125 C 13.78125 -25.535156 13.984375 -23.65625 14.390625 -21.9375 C 14.796875 -20.21875 15.367188 -18.675781 16.109375 -17.3125 Z M 16.109375 -17.3125 "/></g></g></g></g></g></svg>